HIERARCHY
ROOT Hips
{
    OFFSET 0.000000 0.000000 0.000000
    CHANNELS 6 Xposition Yposition Zposition Zrotation Xrotation Yrotation
    JOINT Spine
    {
        OFFSET -0.000000 8.172037 0.000000
        CHANNELS 3 Zrotation Xrotation Yrotation
        JOINT Spine1
        {
            OFFSET -0.000000 18.392342 0.000000
            CHANNELS 3 Zrotation Xrotation Yrotation
            JOINT Neck
            {
                OFFSET -0.000000 18.316809 1.665164
                CHANNELS 3 Zrotation Xrotation Yrotation
                JOINT Head
                {
                    OFFSET -0.000000 13.952258 -1.993180
                    CHANNELS 3 Zrotation Xrotation Yrotation
                    End Site
                    {
                        OFFSET -0.000000 24.914745 0.000000
                    }
                }
            }
            JOINT LeftShoulder
            {
                OFFSET 4.035833 16.062790 -0.310290
                CHANNELS 3 Zrotation Xrotation Yrotation
                JOINT LeftArm
                {
                    OFFSET 12.395579 0.000000 0.000000
                    CHANNELS 3 Zrotation Xrotation Yrotation
                    JOINT LeftForeArm
                    {
                        OFFSET 26.414022 0.000000 0.000000
                        CHANNELS 3 Zrotation Xrotation Yrotation
                        JOINT LeftHand
                        {
                            OFFSET 28.641636 0.000000 0.000000
                            CHANNELS 3 Zrotation Xrotation Yrotation
                            End Site
                            {
                                OFFSET 14.948848 0.000000 0.000000
                            }
                        }
                    }
                }
            }
            JOINT RightShoulder
            {
                OFFSET -3.919767 16.062790 -0.310290
                CHANNELS 3 Zrotation Xrotation Yrotation
                JOINT RightArm
                {
                    OFFSET -12.395579 0.000000 0.000000
                    CHANNELS 3 Zrotation Xrotation Yrotation
                    JOINT RightForeArm
                    {
                        OFFSET -26.414022 0.000000 0.000000
                        CHANNELS 3 Zrotation Xrotation Yrotation
                        JOINT RightHand
                        {
                            OFFSET -28.641636 0.000000 0.000000
                            CHANNELS 3 Zrotation Xrotation Yrotation
                            End Site
                            {
                                OFFSET -14.948848 0.000000 0.000000
                            }
                        }
                    }
                }
            }
        }
    }
    JOINT LeftUpLeg
    {
        OFFSET 9.965899 0.000000 0.000000
        CHANNELS 3 Zrotation Xrotation Yrotation
        JOINT LeftLeg
        {
            OFFSET -0.000000 -49.671295 0.000000
            CHANNELS 3 Zrotation Xrotation Yrotation
            JOINT LeftFoot
            {
                OFFSET -0.000000 -36.155865 0.000000
                CHANNELS 3 Zrotation Xrotation Yrotation
                JOINT LeftToeBase
                {
                    OFFSET -0.000000 -6.477834 14.948848
                    CHANNELS 3 Zrotation Xrotation Yrotation
                    End Site
                    {
                        OFFSET -0.000000 0.000000 3.986359
                    }
                }
            }
        }
    }
    JOINT RightUpLeg
    {
        OFFSET -9.965899 0.000000 0.000000
        CHANNELS 3 Zrotation Xrotation Yrotation
        JOINT RightLeg
        {
            OFFSET -0.000000 -49.671295 0.000000
            CHANNELS 3 Zrotation Xrotation Yrotation
            JOINT RightFoot
            {
                OFFSET -0.000000 -36.155865 0.000000
                CHANNELS 3 Zrotation Xrotation Yrotation
                JOINT RightToeBase
                {
                    OFFSET -0.000000 -6.477834 14.948848
                    CHANNELS 3 Zrotation Xrotation Yrotation
                    End Site
                    {
                        OFFSET -0.000000 0.000000 3.986359
                    }
                }
            }
        }
    }
}
MOTION
Frames:    10
Frame Time:    0.010000
-21.111933    95.527145    38.848709    -2.599711    -1.090188    -172.371704    -4.479259    -3.615050    -1.463709    -0.668812    -1.668604    -1.332045    3.691809    15.022044    -1.030346    2.023365    -1.522191    -0.800195    8.417782    8.273912    6.251404    -69.028023    32.781166    -18.352613    -6.962777    1.150332    -18.898842    -7.269949    -0.407810    6.225404    -3.408507    8.523327    4.317787    63.746002    18.718260    13.776574    21.350315    9.690991    19.018997    5.635757    6.008693    -1.994267    4.784820    -6.029499    -3.735691    -4.128358    13.872567    -0.224330    -0.634027    -9.697819    -6.349626    0.000000    0.000000    0.000000    -11.300626    1.127337    -6.909249    8.611467    8.926294    2.809890    -16.018337    -10.434560    -4.609445    0.000000    0.000000    0.000000    
-21.116053    95.523743    38.834305    -2.593150    -1.068091    -172.347595    -4.471430    -3.594421    -1.462694    -0.694407    -1.661032    -1.332414    3.688095    15.033146    -1.039306    2.062253    -1.509136    -0.803203    8.435810    8.283961    6.259020    -69.044235    32.760342    -18.331320    -6.990105    0.691145    -18.894585    -7.248211    -0.876616    6.357782    -3.393694    8.533674    4.355340    63.710205    18.611155    13.836552    21.404192    9.853445    19.103565    5.606649    6.148212    -1.978922    4.799335    -6.015102    -3.795267    -4.161007    13.897543    -0.240866    -0.605632    -9.726400    -6.272497    0.000000    0.000000    0.000000    -11.294161    1.163916    -6.921987    8.614326    8.935048    2.848010    -16.025829    -10.445993    -4.633225    0.000000    0.000000    0.000000    
-21.120157    95.520195    38.821266    -2.591291    -1.057747    -172.323959    -4.471990    -3.599805    -1.467393    -0.715294    -1.625920    -1.336958    3.647793    15.055222    -1.082295    2.121367    -1.504030    -0.837632    8.448059    8.240827    6.243527    -69.094597    32.730354    -18.230392    -6.946004    1.230027    -18.707943    -7.118950    -0.272576    5.743405    -3.395628    8.496236    4.399021    63.563484    18.397619    13.891973    21.779892    10.045029    19.180227    5.420447    6.265180    -1.964229    4.799646    -6.023063    -3.860934    -4.165935    13.942945    -0.322142    -0.606520    -9.761673    -6.175795    0.000000    0.000000    0.000000    -11.287109    1.179899    -6.929862    8.600773    8.950253    2.773438    -16.009022    -10.479819    -4.576014    0.000000    0.000000    0.000000    
-21.126020    95.517113    38.812775    -2.586842    -1.059474    -172.308701    -4.480954    -3.622161    -1.465488    -0.731478    -1.587489    -1.333912    3.689348    15.086519    -1.103408    2.099346    -1.528583    -0.861923    8.483624    8.242517    6.240727    -69.121246    32.655701    -18.240685    -6.977582    1.255184    -18.631315    -7.032980    -0.242896    5.728989    -3.357773    8.457245    4.431651    63.502697    18.338524    13.905838    21.823629    10.165008    19.283262    5.460898    6.362632    -1.859281    4.797814    -6.037121    -3.928456    -4.191466    13.979630    -0.291147    -0.563487    -9.793932    -6.135858    0.000000    0.000000    0.000000    -11.289547    1.184228    -6.972935    8.601135    8.972219    2.816224    -15.992406    -10.507393    -4.603439    0.000000    0.000000    0.000000    
-21.131475    95.511948    38.798817    -2.571355    -1.064432    -172.301056    -4.465990    -3.661542    -1.466440    -0.762017    -1.537192    -1.333869    3.668523    15.129476    -1.122902    2.168095    -1.568578    -0.869112    8.496058    8.260363    6.243782    -69.125404    32.628273    -18.238625    -6.921566    1.253868    -18.626411    -7.109214    -0.246942    5.859473    -3.329924    8.436057    4.490993    63.450901    18.275339    13.932479    21.857885    10.223416    19.410156    5.541543    6.391561    -1.810595    4.805468    -6.057266    -3.975899    -4.203518    14.029254    -0.232852    -0.543306    -9.843023    -6.154514    0.000000    0.000000    0.000000    -11.286594    1.183486    -7.006936    8.621654    8.991714    2.845172    -16.019089    -10.506337    -4.627042    0.000000    0.000000    0.000000    
-21.136644    95.508102    38.784401    -2.564371    -1.049138    -172.304092    -4.467618    -3.668723    -1.461141    -0.773376    -1.496564    -1.328089    3.667963    15.131554    -1.145354    2.193562    -1.550459    -0.888768    8.505439    8.272397    6.275490    -69.109016    32.660408    -18.266405    -6.883883    1.213110    -18.609337    -7.144334    -0.283772    5.891209    -3.314631    8.418567    4.518695    63.385193    18.221663    13.990072    21.920094    10.317971    19.547340    5.630017    6.442002    -1.922335    4.806850    -6.040574    -3.963281    -4.341960    14.125621    0.480633    -0.358435    -10.005870    -6.527538    0.000000    0.000000    0.000000    -11.286616    1.191622    -7.024314    8.635160    9.033537    2.814142    -16.103785    -10.593685    -4.542084    0.000000    0.000000    0.000000    
-21.144951    95.504524    38.775223    -2.558356    -1.064382    -172.317307    -4.461194    -3.709416    -1.446912    -0.810523    -1.459931    -1.312717    3.655249    15.193241    -1.167989    2.266045    -1.613173    -0.897531    8.534605    8.296286    6.274856    -69.090500    32.720333    -18.302164    -6.797159    1.184955    -18.599260    -7.217560    -0.301159    5.890078    -3.282527    8.404679    4.556509    63.271351    17.988222    14.115719    22.432892    10.210824    19.544106    5.138670    6.244128    -2.084974    4.801326    -6.059752    -3.977686    -4.312495    14.131560    0.400370    -0.408028    -9.991814    -6.491951    0.000000    0.000000    0.000000    -11.290425    1.161728    -7.049334    8.620664    9.070292    2.842926    -15.972907    -10.569693    -4.593283    0.000000    0.000000    0.000000    
-21.148331    95.498436    38.759548    -2.545466    -1.049630    -172.317993    -4.450043    -3.727100    -1.445921    -0.840256    -1.402208    -1.311346    3.586107    15.200740    -1.172481    2.398990    -1.640376    -0.879858    8.547709    8.287984    6.303152    -69.078102    32.735046    -18.299623    -6.752355    0.735219    -18.715723    -7.410907    -0.784267    6.253442    -3.253162    8.382838    4.581050    63.220482    18.013180    14.170275    22.388170    10.359545    19.677994    5.241698    6.380908    -1.917923    4.817914    -6.049528    -3.875315    -4.292248    14.142757    0.240584    -0.378206    -9.989038    -6.474790    0.000000    0.000000    0.000000    -11.280423    1.180385    -7.085675    8.624667    9.085966    2.882274    -15.974316    -10.581662    -4.621552    0.000000    0.000000    0.000000    
-21.150423    95.493790    38.750580    -2.530905    -1.059709    -172.322739    -4.420445    -3.761996    -1.446231    -0.897859    -1.362622    -1.311654    3.568851    15.233415    -1.174309    2.465303    -1.673999    -0.869351    8.545382    8.284624    6.316579    -69.024826    32.692345    -18.294260    -6.789484    0.719799    -18.742388    -7.345953    -0.804892    6.270125    -3.233376    8.411370    4.639041    63.153339    17.933628    14.261910    22.450418    10.488817    19.821072    5.306518    6.470150    -1.918510    4.839395    -6.068786    -3.859523    -4.403436    14.276127    0.571559    -0.219943    -10.198848    -6.554452    0.000000    0.000000    0.000000    -11.270308    1.159169    -7.089591    8.618464    9.121104    2.948742    -15.947366    -10.594334    -4.672749    0.000000    0.000000    0.000000    
-21.158978    95.489365    38.732540    -2.538930    -1.042421    -172.346130    -4.406659    -3.774287    -1.441728    -0.950598    -1.324040    -1.307420    3.523771    15.230081    -1.171704    2.556601    -1.636927    -0.852769    8.544375    8.252831    6.335627    -69.017601    32.691116    -18.225056    -6.760032    0.706457    -18.786947    -7.375750    -0.818856    6.287720    -3.209820    8.430671    4.681523    63.081993    18.005108    14.338492    22.381832    10.543964    20.127748    5.487120    6.465013    -2.087021    4.832932    -6.033233    -3.850391    -4.310190    14.174675    0.116989    -0.370263    -10.046204    -6.364699    0.000000    0.000000    0.000000    -11.287236    1.176887    -7.096719    8.633944    9.133536    2.951288    -15.951053    -10.610122    -4.677021    0.000000    0.000000    0.000000    
